<svg xmlns="http://www.w3.org/2000/svg" xmlns:xlink="http://www.w3.org/1999/xlink" viewBox="0 0 48 48" fill="#FFFFFF">
  <path d="M24 3.9980469C12.972292 3.9980469 4 12.970339 4 23.998047C4 27.273363 4.8627078 30.334853 6.2617188 33.064453L4.09375 40.826172C3.5887973 42.629575 5.3719261 44.41261 7.1757812 43.908203L14.943359 41.740234C17.670736 43.136312 20.727751 43.998047 24 43.998047C35.027708 43.998047 44 35.025755 44 23.998047C44 12.970339 35.027708 3.9980469 24 3.9980469 z M 24 13C26.757 13 29 15.243 29 18C29 20.757 26.757 23 24 23C21.243 23 19 20.757 19 18C19 15.243 21.243 13 24 13 z M 17.5 27L30.5 27C31.878 27 33 28.121 33 29.5L33 30.5C33 30.946 32.948656 31.384734 32.847656 31.802734C32.782656 32.073734 32.643313 32.321578 32.445312 32.517578C30.175312 34.763578 27.176 36 24 36C20.824 36 17.825688 34.763578 15.554688 32.517578C15.356688 32.321578 15.215391 32.073734 15.150391 31.802734C15.050391 31.384734 15 30.946 15 30.5L15 29.5C15 28.121 16.122 27 17.5 27 z" fill="#FFFFFF" />
</svg>