<svg xmlns="http://www.w3.org/2000/svg" xmlns:xlink="http://www.w3.org/1999/xlink" viewBox="0 0 48 48" fill="#FFFFFF">
  <path d="M19.388672 5.0019531C18.773756 5.0054834 18.150314 5.044942 17.521484 5.1230469C10.697094 5.9702662 5.1745505 11.367451 4.171875 18.171875C3.6819078 21.498548 4.3584219 24.635174 5.7148438 27.355469L4.0429688 34.140625 A 1.50015 1.50015 0 0 0 5.8574219 35.957031L12.648438 34.287109C15.368982 35.642479 18.506526 36.317138 21.832031 35.826172C28.634317 34.822374 34.029726 29.301856 34.876953 22.478516C35.971423 13.67555 29.565762 6.0333486 21.207031 5.0976562C20.609979 5.0308211 20.003588 4.9984229 19.388672 5.0019531 z M 36.990234 14.509766C37.900234 17.149766 38.199609 19.999609 37.849609 22.849609C36.839609 31.029609 30.429531 37.589062 22.269531 38.789062C21.349531 38.929062 20.42 39 19.5 39C19.01 39 18.509531 38.979687 18.019531 38.929688C20.229531 40.969687 23.059922 42.360078 26.169922 42.830078C29.409922 43.300078 32.63 42.790312 35.5 41.320312L42.140625 42.960938C42.260625 42.990938 42.38 43 42.5 43C42.89 43 43.280547 42.850547 43.560547 42.560547C43.930547 42.190547 44.080937 41.650625 43.960938 41.140625L42.320312 34.5C43.790313 31.63 44.310078 28.419922 43.830078 25.169922C43.170078 20.709922 40.600234 16.879766 36.990234 14.509766 z M 13.5 15.998047L26.5 15.998047C27.329 15.998047 28 16.670047 28 17.498047C28 18.326047 27.329 18.998047 26.5 18.998047L13.5 18.998047C12.671 18.998047 12 18.326047 12 17.498047C12 16.670047 12.671 15.998047 13.5 15.998047 z M 13.5 22.998047L22.5 22.998047C23.329 22.998047 24 23.670047 24 24.498047C24 25.326047 23.329 25.998047 22.5 25.998047L13.5 25.998047C12.671 25.998047 12 25.326047 12 24.498047C12 23.670047 12.671 22.998047 13.5 22.998047 z" fill="#FFFFFF" />
</svg>