<svg xmlns="http://www.w3.org/2000/svg" xmlns:xlink="http://www.w3.org/1999/xlink" viewBox="0 0 697.18 194.6"><defs><style>.a{fill:none;}.b{fill:#fff;}.c{clip-path:url(#a);}.d{clip-path:url(#b);}</style><clipPath id="a"><rect class="a" y="0.35" width="194.6" height="193.9"/></clipPath><clipPath id="b"><rect class="a" x="54.92" y="43.82" width="84.75" height="106.96"/></clipPath></defs><title>ic_logo_smart_up</title><path class="b" d="M258.21,121.94a34,34,0,0,1-13.77-2.44,20,20,0,0,1-8.42-6.38,14.83,14.83,0,0,1-3.07-8.28,1.82,1.82,0,0,1,1.86-1.86h7.89a2.72,2.72,0,0,1,1.74.48,5.3,5.3,0,0,1,1,1.21,8.94,8.94,0,0,0,2,3.32,11.21,11.21,0,0,0,4.13,2.71,17.6,17.6,0,0,0,6.59,1.06q6.38,0,9.54-2.12a6.62,6.62,0,0,0,3.14-5.76,5.36,5.36,0,0,0-1.68-4.13A16,16,0,0,0,264,96.89a94.51,94.51,0,0,0-9.27-2.7,51.76,51.76,0,0,1-11.12-3.84,16.86,16.86,0,0,1-6.73-5.73,15.7,15.7,0,0,1-2.27-8.77,15.49,15.49,0,0,1,2.8-9.13,18.66,18.66,0,0,1,8-6.29,30.18,30.18,0,0,1,12.36-2.3A31,31,0,0,1,268,59.66a22.79,22.79,0,0,1,7.36,4.08,19.63,19.63,0,0,1,4.48,5.41,12.88,12.88,0,0,1,1.63,5.64,1.93,1.93,0,0,1-.48,1.28,1.72,1.72,0,0,1-1.38.59h-8.24a3.12,3.12,0,0,1-1.42-.35A2.59,2.59,0,0,1,268.76,75a7.37,7.37,0,0,0-3.46-4.7,13.33,13.33,0,0,0-7.54-1.95,14.73,14.73,0,0,0-7.71,1.77,6,6,0,0,0-2.93,5.5,5.91,5.91,0,0,0,1.47,4.11,11.8,11.8,0,0,0,4.7,2.89,86.72,86.72,0,0,0,8.54,2.66,62.07,62.07,0,0,1,12.32,3.9,16.13,16.13,0,0,1,7,5.62,15.6,15.6,0,0,1,2.22,8.65,15.94,15.94,0,0,1-3.14,10,19.85,19.85,0,0,1-8.82,6.34,36.18,36.18,0,0,1-13.21,2.21Zm43.87-.88h-7.45a2.12,2.12,0,0,1-2.12-2.13V77.09A2.12,2.12,0,0,1,294.64,75h6.91a2.12,2.12,0,0,1,2.13,2.13v3a15.45,15.45,0,0,1,5-4.22,16.14,16.14,0,0,1,7.5-1.81q10.11-.18,14.09,7.89a15.36,15.36,0,0,1,5.88-5.73,17.25,17.25,0,0,1,8.56-2.16,16.67,16.67,0,0,1,8.37,2.13A14.71,14.71,0,0,1,359,82.62a23.93,23.93,0,0,1,2.18,10.87v25.44a2.12,2.12,0,0,1-2.13,2.13h-7.27a2.12,2.12,0,0,1-2.12-2.13V94.19a14.59,14.59,0,0,0-1.15-6.34,7,7,0,0,0-3.1-3.32,9.61,9.61,0,0,0-4.34-1,8.66,8.66,0,0,0-3.9,1A7.45,7.45,0,0,0,334,87.85a13.69,13.69,0,0,0-1.24,6.34v24.73a2.12,2.12,0,0,1-2.12,2.13h-7.27a2.12,2.12,0,0,1-2.13-2.13V94.19A13.69,13.69,0,0,0,320,87.85a7.45,7.45,0,0,0-3.19-3.32,9.21,9.21,0,0,0-4.17-1,8.61,8.61,0,0,0-4,1,7.8,7.8,0,0,0-3.19,3.33,13.36,13.36,0,0,0-1.24,6.29v24.73a2.12,2.12,0,0,1-2.13,2.13Zm83.76.88a18.63,18.63,0,0,1-8.33-1.82,15.25,15.25,0,0,1-5.91-4.87,12.12,12.12,0,0,1,2.89-16.75q5.05-3.67,13.21-4.91l12.14-1.77V89.94A8.22,8.22,0,0,0,398,84.18q-1.86-2-6.38-2a9.55,9.55,0,0,0-5.19,1.27,8,8,0,0,0-3,3.42,2.26,2.26,0,0,1-2,1.15h-7a1.91,1.91,0,0,1-1.47-.53,2,2,0,0,1-.48-1.42,8.84,8.84,0,0,1,1.19-3.46,14.33,14.33,0,0,1,3.37-4,19.68,19.68,0,0,1,5.9-3.23,25.61,25.61,0,0,1,8.77-1.33,28.39,28.39,0,0,1,9.43,1.36,16.37,16.37,0,0,1,6.17,3.69,13.94,13.94,0,0,1,3.37,5.41,20.14,20.14,0,0,1,1.06,6.56v27.83a2.12,2.12,0,0,1-2.13,2.13h-7.18a2,2,0,0,1-1.56-.62,2.15,2.15,0,0,1-.57-1.51v-3.46a15.43,15.43,0,0,1-3.1,3.1,15.75,15.75,0,0,1-4.75,2.43,20.74,20.74,0,0,1-6.6.94Zm3-8.42a11.87,11.87,0,0,0,5.62-1.33,9.39,9.39,0,0,0,4-4.13,15,15,0,0,0,1.47-7V99.16l-8.86,1.42a19.11,19.11,0,0,0-7.8,2.57,5.18,5.18,0,0,0-2.57,4.34,4.89,4.89,0,0,0,1.19,3.32,7.09,7.09,0,0,0,3.07,2,11.35,11.35,0,0,0,3.9.68Zm44,7.53h-7.71a2.12,2.12,0,0,1-2.13-2.13V77.18a2.15,2.15,0,0,1,.62-1.59,2,2,0,0,1,1.5-.62h7.18a2.24,2.24,0,0,1,1.56.62,2.09,2.09,0,0,1,.65,1.59v3.63a13.29,13.29,0,0,1,5.28-4.34,17.5,17.5,0,0,1,7.48-1.5H451a2,2,0,0,1,1.56.62,2.14,2.14,0,0,1,.57,1.5v6.38a2.16,2.16,0,0,1-.57,1.51,2,2,0,0,1-1.56.62h-6.91a8.16,8.16,0,0,0-8.95,8.95v24.38a2.05,2.05,0,0,1-.62,1.51,2.16,2.16,0,0,1-1.6.62Zm55.13,0h-7.18a19.47,19.47,0,0,1-9-1.86,11.86,11.86,0,0,1-5.41-5.53,21.09,21.09,0,0,1-1.77-9.18V84.36h-7a2,2,0,0,1-1.51-.62,2.16,2.16,0,0,1-.62-1.59V77.09A2.12,2.12,0,0,1,457.71,75h7V60.25a2.12,2.12,0,0,1,.59-1.51,2,2,0,0,1,1.54-.62H474a2.11,2.11,0,0,1,2.13,2.13V75h11.08a2.12,2.12,0,0,1,2.13,2.13v5.05a2.16,2.16,0,0,1-.62,1.59,2,2,0,0,1-1.51.62H476.14v19.24a10.59,10.59,0,0,0,1.29,5.67q1.28,2,4.47,2H488a2.12,2.12,0,0,1,2.13,2.12v5.5a2.12,2.12,0,0,1-2.12,2.13Zm27.12.88a17.4,17.4,0,0,1-9.36-2.44,15.87,15.87,0,0,1-6.06-6.91A24.39,24.39,0,0,1,497.59,102V77.09A2.12,2.12,0,0,1,499.72,75h7.8a2,2,0,0,1,1.54.62,2.1,2.1,0,0,1,.59,1.5v24.38q0,11,9.66,11a9.45,9.45,0,0,0,7.31-2.93q2.71-2.92,2.71-8.07V77.09A2.12,2.12,0,0,1,531.45,75h7.8a2.12,2.12,0,0,1,2.13,2.13v41.84a2.12,2.12,0,0,1-2.13,2.13h-7.18a2,2,0,0,1-1.56-.62,2.15,2.15,0,0,1-.57-1.51v-3.63a17,17,0,0,1-5.94,4.88,19.78,19.78,0,0,1-8.86,1.77Zm47.68,16h-7.53a2.12,2.12,0,0,1-2.12-2.13V77.09A2.12,2.12,0,0,1,555.29,75h7a2,2,0,0,1,1.54.62,2.1,2.1,0,0,1,.58,1.5v3.55a16.84,16.84,0,0,1,5.59-4.7,18,18,0,0,1,8.6-1.86,20.21,20.21,0,0,1,8.15,1.51,15.26,15.26,0,0,1,5.76,4.29,20,20,0,0,1,3.55,6.61,30.92,30.92,0,0,1,1.42,8.42q.09,1.51.09,3.1c0,1.06,0,2.13-.09,3.19a27.9,27.9,0,0,1-1.33,8.19,19.37,19.37,0,0,1-3.6,6.56,16.36,16.36,0,0,1-5.8,4.39,19.31,19.31,0,0,1-8.15,1.59,17.65,17.65,0,0,1-8.16-1.73,15.64,15.64,0,0,1-5.49-4.56v20.12a2.12,2.12,0,0,1-.59,1.51,2,2,0,0,1-1.54.62Zm12.5-25.44a9.5,9.5,0,0,0,5.94-1.65,9.35,9.35,0,0,0,3.1-4.29,20.3,20.3,0,0,0,1.15-5.85q.09-2.66,0-5.32a20.32,20.32,0,0,0-1.15-5.85,9.46,9.46,0,0,0-3.1-4.31,11.41,11.41,0,0,0-11.84.06,9.68,9.68,0,0,0-3.28,4.29A18,18,0,0,0,565,94.91c-.06,1.06-.09,2.19-.09,3.37s0,2.34.09,3.46a12.77,12.77,0,0,0,1.24,5.09,10.33,10.33,0,0,0,3.37,4,9.62,9.62,0,0,0,5.76,1.6Zm42.62,8.6h-8.86a2.12,2.12,0,0,1-2.13-2.13v-8.77a2.16,2.16,0,0,1,.62-1.6,2,2,0,0,1,1.51-.62h8.86a2,2,0,0,1,1.5.62,2.16,2.16,0,0,1,.62,1.6v8.77a2.12,2.12,0,0,1-2.13,2.13Zm22.78,0h-7.35a2.12,2.12,0,0,1-2.13-2.13V77.09A2.12,2.12,0,0,1,633.36,75h7.35a2,2,0,0,1,1.56.62,2.14,2.14,0,0,1,.57,1.5v41.84a2.16,2.16,0,0,1-.57,1.51,2,2,0,0,1-1.56.62Zm.36-53.71H633a2.12,2.12,0,0,1-2.13-2.12V58.83A2.12,2.12,0,0,1,633,56.71h8.07a2.17,2.17,0,0,1,1.59.62,2.06,2.06,0,0,1,.62,1.51v6.38a2.05,2.05,0,0,1-.62,1.51,2.17,2.17,0,0,1-1.59.62Zm30.67,54.6a19.85,19.85,0,0,1-8.12-1.56,15.34,15.34,0,0,1-5.8-4.38,20.36,20.36,0,0,1-3.54-6.7,31.33,31.33,0,0,1-1.42-8.46c-.06-1.06-.09-2-.09-2.89s0-1.81.09-2.88a31.81,31.81,0,0,1,1.36-8.24,20.21,20.21,0,0,1,3.55-6.7,16.13,16.13,0,0,1,5.85-4.47,19.46,19.46,0,0,1,8.12-1.59,18.23,18.23,0,0,1,8.1,1.63,17.45,17.45,0,0,1,5.55,4.22V60.25a2.15,2.15,0,0,1,.57-1.51,2.05,2.05,0,0,1,1.56-.62H695a2.11,2.11,0,0,1,2.13,2.13v58.68a2.12,2.12,0,0,1-2.13,2.13h-7a2,2,0,0,1-1.56-.62,2.15,2.15,0,0,1-.57-1.51v-3.28a17.43,17.43,0,0,1-5.64,4.52,18.42,18.42,0,0,1-8.54,1.77Zm3.28-9.48a9.59,9.59,0,0,0,5.94-1.68,10.08,10.08,0,0,0,3.28-4.29,15.53,15.53,0,0,0,1.15-5.37q.09-1.59.09-3.42c0-1.2,0-2.34-.09-3.4a12.83,12.83,0,0,0-1.24-5.11,10.36,10.36,0,0,0-3.37-4,11.36,11.36,0,0,0-11.66,0A9.32,9.32,0,0,0,666,89.5a20.06,20.06,0,0,0-1.15,5.85q-.09,2.66,0,5.32a20,20,0,0,0,1.15,5.85,9.21,9.21,0,0,0,3.14,4.29,9.57,9.57,0,0,0,5.9,1.65Zm0,0"/><g class="c"><path class="b" d="M0,97.3a97.3,97.3,0,1,1,97.3,97.3A97.3,97.3,0,0,1,0,97.3Zm97.3,90a90,90,0,1,0-90-90,90,90,0,0,0,90,90Zm0,0"/></g><g class="d"><path class="b" d="M122.56,74.18l-1.34-1.07a3.35,3.35,0,0,0-5.08,1.07c-.4.94-.8,10.3-.8,11.9V87a2.15,2.15,0,0,1-2.54,2.14,2.3,2.3,0,0,1-1.87-2.27c-.13-16-4.95-27.27-14-35.7-5.48-5.08-12-9.62-14-6.15-.53.94.27,2.94,1.2,5.48,1.88,5.75-3.87,15-12,24.2C64.42,83.41,54.92,94.1,54.92,110c0,21.39,20.19,40.77,42.38,40.77s42.38-19.39,42.38-40.77a47.44,47.44,0,0,0-17.11-35.83ZM97.3,143a17.57,17.57,0,0,1-17.51-17.51,17.16,17.16,0,0,1,5.08-12.3l9.63-11.5a3.82,3.82,0,0,1,5.75,0l9.63,11.5A17.49,17.49,0,0,1,97.3,143Zm0,0"/></g></svg>