<svg width="24" height="24" viewBox="0 0 24 24" fill="none" xmlns="http://www.w3.org/2000/svg">
<path d="M11.1621 24L8.40728 18.9797C5.10484 17.4499 2.98751 14.0959 3.00006 10.3792C3.01678 5.20102 7.149 1 12.2176 1C12.2281 1 12.2385 1 12.249 1C14.7112 1.00853 17.0229 1.99425 18.7577 3.77792C20.4925 5.5616 21.4435 7.92774 21.4352 10.439C21.4268 12.9523 20.4612 15.3121 18.7138 17.0829C16.9748 18.8474 14.6694 19.816 12.2176 19.816C12.2072 19.816 12.1967 19.816 12.1863 19.816C11.9668 19.816 11.7473 19.8075 11.5279 19.7904L11.1621 24ZM12.2176 2.06679C7.7238 2.06679 4.05976 5.79202 4.04513 10.3814C4.03468 13.7311 5.97434 16.7501 8.98416 18.0729L9.14719 18.1433L10.4222 20.4647L10.5852 18.602L11.1266 18.6746C11.4777 18.7215 11.8372 18.7471 12.1925 18.7493C14.3767 18.7642 16.4314 17.8958 17.9802 16.3255C19.529 14.7552 20.3859 12.6622 20.3922 10.4347C20.3985 8.20724 19.5561 6.10993 18.0178 4.52894C16.4773 2.94796 14.4269 2.07319 12.2448 2.06679C12.2364 2.06679 12.226 2.06679 12.2176 2.06679Z" fill="white"/>
<path d="M9.20159 9.30807L11.6283 11.6251L16.1994 7.16595L18.091 8.91549L11.6178 15.0773L7.38525 11.1003L9.20159 9.30807Z" fill="white"/>
</svg>
